<?xml version="1.0" encoding="utf-8"?>
<!-- Generator: Adobe Illustrator 18.1.1, SVG Export Plug-In . SVG Version: 6.00 Build 0)  -->
<!DOCTYPE svg PUBLIC "-//W3C//DTD SVG 1.1//EN" "http://www.w3.org/Graphics/SVG/1.1/DTD/svg11.dtd">
<svg version="1.1" id="Layer_1" xmlns="http://www.w3.org/2000/svg" xmlns:xlink="http://www.w3.org/1999/xlink" x="0px" y="0px"
	 viewBox="0 0 23.5 23" enable-background="new 0 0 23.5 23" xml:space="preserve">
<g>
	
		<linearGradient id="SVGID_1_" gradientUnits="userSpaceOnUse" x1="9.837" y1="22.9935" x2="9.837" y2="0.4935" gradientTransform="matrix(1.0222 0 0 -1.0222 1.7 23.5044)">
		<stop  offset="0" style="stop-color:#E52D27"/>
		<stop  offset="1" style="stop-color:#B31217"/>
	</linearGradient>
	<path fill="url(#SVGID_1_)" d="M22.3,0H1.2C0.5,0,0,0.5,0,1.2v20.5C0,22.4,0.5,23,1.2,23h21.1c0.6,0,1.2-0.5,1.2-1.2V1.2
		C23.5,0.5,23,0,22.3,0z"/>
</g>
<g>
	<path id="The_Sharpness" opacity="0.12" enable-background="new    " d="M10.1,9.1l3.7,2.5l0.5-0.3L10.1,9.1z"/>
	<g id="Lozenge">
		<g>
			<path fill="#FFFFFF" d="M19.4,8.4c0,0-0.1-1.1-0.6-1.5c-0.6-0.6-1.2-0.6-1.5-0.6C15.1,6,11.9,6,11.9,6l0,0c0,0-3.3,0-5.4,0.2
				c-0.3,0-0.9,0-1.5,0.6C4.3,7.3,4.1,8.4,4.1,8.4s-0.2,1.2-0.2,2.6v1.2c0,1.2,0.2,2.6,0.2,2.6s0.1,1.1,0.6,1.5
				C5.3,16.9,6,16.9,6.4,17c1.2,0.1,5.3,0.2,5.3,0.2s3.3,0,5.4-0.2c0.3,0,0.9,0,1.5-0.6c0.5-0.5,0.6-1.5,0.6-1.5s0.2-1.2,0.2-2.6V11
				C19.5,9.6,19.4,8.4,19.4,8.4z M10.1,13.5V9.1l4.2,2.1L10.1,13.5z"/>
		</g>
	</g>
</g>
</svg>
