<?xml version="1.0" encoding="utf-8"?>
<!-- Generator: Adobe Illustrator 18.1.1, SVG Export Plug-In . SVG Version: 6.00 Build 0)  -->
<!DOCTYPE svg PUBLIC "-//W3C//DTD SVG 1.1//EN" "http://www.w3.org/Graphics/SVG/1.1/DTD/svg11.dtd">
<svg version="1.1" id="Layer_1" xmlns="http://www.w3.org/2000/svg" xmlns:xlink="http://www.w3.org/1999/xlink" x="0px" y="0px"
	 viewBox="0.3 0 23 23" enable-background="new 0.3 0 23 23" xml:space="preserve">
<g>
	<path id="Blue_1_" fill="#3D5A98" d="M22,23c0.7,0,1.3-0.6,1.3-1.3V1.3C23.3,0.6,22.7,0,22,0H1.5C0.8,0,0.3,0.6,0.3,1.3v20.5
		c0,0.7,0.6,1.3,1.3,1.3H22z"/>
	<path id="f_2_" fill="#FFFFFF" d="M16.1,23v-8.9h3l0.4-3.5h-3.4V8.4c0-1,0.3-1.7,1.7-1.7l1.8,0V3.6c-0.3,0-1.4-0.1-2.7-0.1
		c-2.7,0-4.5,1.6-4.5,4.6v2.6h-3v3.5h3V23H16.1z"/>
</g>
</svg>
