<?xml version="1.0" encoding="utf-8"?>
<!-- Generator: Adobe Illustrator 18.1.1, SVG Export Plug-In . SVG Version: 6.00 Build 0)  -->
<!DOCTYPE svg PUBLIC "-//W3C//DTD SVG 1.1//EN" "http://www.w3.org/Graphics/SVG/1.1/DTD/svg11.dtd">
<svg version="1.1" id="Layer_1" xmlns="http://www.w3.org/2000/svg" xmlns:xlink="http://www.w3.org/1999/xlink" x="0px" y="0px"
	 viewBox="0.3 0 23 23" enable-background="new 0.3 0 23 23" xml:space="preserve">
<g>
	<path id="White_28_" fill="#5FA9DD" d="M22,23c0.7,0,1.3-0.6,1.3-1.3V1.3C23.3,0.6,22.7,0,22,0H1.5C0.8,0,0.3,0.6,0.3,1.3v20.5
		c0,0.7,0.6,1.3,1.3,1.3"/>
	<path fill="#FFFFFF" d="M20.8,6.5c-0.6,0.3-1.3,0.5-2,0.5c0.7-0.4,1.3-1.1,1.5-1.9c-0.7,0.4-1.4,0.7-2.2,0.8
		c-0.6-0.7-1.5-1.1-2.5-1.1c-1.9,0-3.4,1.5-3.4,3.4c0,0.3,0,0.5,0.1,0.8C9.4,8.9,6.9,7.6,5.2,5.5C4.9,6,4.7,6.6,4.7,7.2
		c0,1.2,0.6,2.2,1.5,2.9c-0.6,0-1.1-0.2-1.6-0.4c0,0,0,0,0,0c0,1.7,1.2,3.1,2.8,3.4c-0.3,0.1-0.6,0.1-0.9,0.1c-0.2,0-0.4,0-0.6-0.1
		c0.4,1.4,1.7,2.4,3.2,2.4C7.9,16.4,6.4,17,4.8,17c-0.3,0-0.6,0-0.8,0c1.5,1,3.3,1.5,5.3,1.5c6.3,0,9.8-5.2,9.8-9.8
		c0-0.1,0-0.3,0-0.4C19.7,7.8,20.3,7.2,20.8,6.5z"/>
</g>
</svg>
