<?xml version="1.0" encoding="utf-8"?>
<!-- Generator: Adobe Illustrator 22.1.0, SVG Export Plug-In . SVG Version: 6.00 Build 0)  -->
<svg version="1.1" id="Capa_1" xmlns="http://www.w3.org/2000/svg" xmlns:xlink="http://www.w3.org/1999/xlink" x="0px" y="0px"
	 viewBox="0 0 512 512" style="enable-background:new 0 0 512 512;" xml:space="preserve">
<style type="text/css">
	.st0{fill:#293144;}
</style>
<g>
	<g>
		<path class="st0" d="M192.4,291.4c-3.9-3.9-10.2-3.9-14.1,0c-3.9,3.9-3.9,10.2,0,14.1c3.9,3.9,10.2,3.9,14.1,0
			C196.3,301.6,196.3,295.3,192.4,291.4z"/>
	</g>
</g>
<g>
	<g>
		<path class="st0" d="M503.2,65.4L446.6,8.8c-11.6-11.6-30.5-11.9-42.4,0c-11.7,11.7-11.7,30.7,0,42.4l7.1,7.1l-48,48
			c-3.3-3.3-32.2-32.2-35.4-35.4c-3.9-3.9-10.2-3.9-14.1,0c-3.9,3.9-3.9,10.2,0,14.1l7.1,7.1c-3.6,3.6-170.2,170.2-182.8,182.8
			c-16.9,16.9-23.3,40-19.4,61.8L100.4,355c-11.7,11.7-11.7,30.7,0,42.4L2.9,494.9c-3.9,3.9-3.9,10.2,0,14.1
			c3.9,3.9,10.2,3.9,14.1,0l97.5-97.5c11.7,11.7,30.7,11.7,42.4,0l18.3-18.3c22.7,4.1,45.8-3.4,61.8-19.4
			c39.5-39.5,142.6-142.5,182.8-182.8l7.1,7.1c3.9,3.9,10.2,3.9,14.1,0s3.9-10.2,0-14.1c-3.2-3.2-32.1-32.1-35.4-35.4l48-48l7.1,7.1
			c11.7,11.8,30.7,11.7,42.4,0C514.9,96.1,514.9,77.1,503.2,65.4z M142.9,397.4c-3.9,3.9-10.2,3.9-14.1,0
			c-17.2-17.2-13-13-14.1-14.1c-3.9-3.9-3.9-10.2,0-14.1l11.4-11.4c3,5.6,6.8,10.7,11.2,15.3c5,5.2,10.7,9.6,17.1,13L142.9,397.4z
			 M270.1,312.6l-7.1-7.1c-3.9-3.9-10.2-3.9-14.1,0c-3.9,3.9-3.9,10.2,0,14.1l7.1,7.1l-14.1,14.1l-21.2-21.2
			c-3.9-3.9-10.2-3.9-14.1,0c-3.9,3.9-3.9,10.2,0,14.1l21.2,21.2l-4.8,4.8c-19.7,19.7-51.9,19.6-71.4-0.8
			c-18.5-19.3-18.8-50.4,0.7-69.9l61.3-61.3l70.7,70.7L270.1,312.6z M405.7,177l-22.4,22.4l-21.2-21.2c-3.9-3.9-10.2-3.9-14.1,0
			c-3.9,3.9-3.9,10.2,0,14.1l21.2,21.2L355,227.7l-7.1-7.1c-3.9-3.9-10.2-3.9-14.1,0c-3.9,3.9-3.9,10.2,0,14.1l7.1,7.1L326.7,256
			l-21.2-21.2c-3.9-3.9-10.2-3.9-14.1,0c-3.9,3.9-3.9,10.2,0,14.1l21.2,21.2l-14.1,14.1l-70.7-70.7L335,106.3L405.7,177z
			 M391.6,134.6l-14.1-14.1l48-48l14.1,14.1L391.6,134.6z M489.1,93.6c-3.8,3.8-10.2,4-14.1,0c-4.8-4.8-49-49-56.6-56.6
			c-3.9-3.9-3.9-10.2,0-14.1c3.9-3.9,10.2-3.9,14.1,0l56.6,56.6C493,83.4,493,89.7,489.1,93.6z"/>
	</g>
</g>
</svg>
